<svg width="24" height="24" viewBox="0 0 24 24" fill="none" xmlns="http://www.w3.org/2000/svg">
<circle cx="12" cy="12" r="12" fill="#8E6447" fill-opacity="0.1"/>
<path d="M10.3333 8.66675C10.3333 8.29856 10.6318 8.00008 11 8.00008H15C15.3682 8.00008 15.6667 8.29856 15.6667 8.66675C15.6667 9.03494 15.3682 9.33341 15 9.33341H11C10.6318 9.33341 10.3333 9.03494 10.3333 8.66675Z" fill="#8E6447"/>
<path d="M11 11.3334C10.6318 11.3334 10.3333 11.6319 10.3333 12.0001C10.3333 12.3683 10.6318 12.6667 11 12.6667H15C15.3682 12.6667 15.6667 12.3683 15.6667 12.0001C15.6667 11.6319 15.3682 11.3334 15 11.3334H11Z" fill="#8E6447"/>
<path d="M10.3333 15.3334C10.3333 14.9652 10.6318 14.6667 11 14.6667H15C15.3682 14.6667 15.6667 14.9652 15.6667 15.3334C15.6667 15.7016 15.3682 16.0001 15 16.0001H11C10.6318 16.0001 10.3333 15.7016 10.3333 15.3334Z" fill="#8E6447"/>
<path d="M9.66667 8.66675C9.66667 9.03495 9.3682 9.33341 9 9.33341C8.6318 9.33341 8.33333 9.03495 8.33333 8.66675C8.33333 8.29855 8.6318 8.00008 9 8.00008C9.3682 8.00008 9.66667 8.29855 9.66667 8.66675Z" fill="#8E6447"/>
<path d="M9 12.6667C9.3682 12.6667 9.66667 12.3683 9.66667 12.0001C9.66667 11.6319 9.3682 11.3334 9 11.3334C8.6318 11.3334 8.33333 11.6319 8.33333 12.0001C8.33333 12.3683 8.6318 12.6667 9 12.6667Z" fill="#8E6447"/>
<path d="M9.66667 15.3334C9.66667 15.7016 9.3682 16.0001 9 16.0001C8.6318 16.0001 8.33333 15.7016 8.33333 15.3334C8.33333 14.9652 8.6318 14.6667 9 14.6667C9.3682 14.6667 9.66667 14.9652 9.66667 15.3334Z" fill="#8E6447"/>
<path fill-rule="evenodd" clip-rule="evenodd" d="M6 6.00008C6 5.2637 6.59695 4.66675 7.33333 4.66675H16.6667C17.403 4.66675 18 5.2637 18 6.00008V18.0001C18 18.7365 17.403 19.3334 16.6667 19.3334H7.33333C6.59695 19.3334 6 18.7365 6 18.0001V6.00008ZM16.6667 6.00008H7.33333V18.0001H16.6667V6.00008Z" fill="#8E6447"/>
</svg>
