<svg width="24" height="24" viewBox="0 0 24 24" fill="none" xmlns="http://www.w3.org/2000/svg">
<path fill-rule="evenodd" clip-rule="evenodd" d="M12.1636 18.6666C11.2603 18.6666 10.3796 18.6566 9.50825 18.6386C8.39358 18.6166 7.62225 17.8939 7.49625 16.7526C7.28625 14.8593 6.92692 10.3966 6.92358 10.3519C6.90092 10.0766 7.10625 9.83527 7.38159 9.81327C7.65292 9.80594 7.89825 9.9966 7.92025 10.2713C7.92359 10.3166 8.28225 14.7639 8.49025 16.6426C8.56159 17.2913 8.91158 17.6259 9.52892 17.6386C11.1956 17.6739 12.8963 17.6759 14.7296 17.6426C15.3856 17.6299 15.7403 17.3019 15.8136 16.6379C16.0203 14.7753 16.3803 10.3166 16.3843 10.2713C16.4063 9.9966 16.6496 9.8046 16.9223 9.81327C17.1976 9.83594 17.4029 10.0766 17.3809 10.3519C17.3769 10.3973 17.0156 14.8713 16.8076 16.7479C16.6783 17.9126 15.9089 18.6213 14.7476 18.6426C13.8589 18.6579 13.0016 18.6666 12.1636 18.6666Z" fill="#D00000"/>
<path fill-rule="evenodd" clip-rule="evenodd" d="M17.8053 8.65942H6.5C6.224 8.65942 6 8.43542 6 8.15942C6 7.88342 6.224 7.65942 6.5 7.65942H17.8053C18.0813 7.65942 18.3053 7.88342 18.3053 8.15942C18.3053 8.43542 18.0813 8.65942 17.8053 8.65942Z" fill="#D00000"/>
<path fill-rule="evenodd" clip-rule="evenodd" d="M15.6264 8.6595C14.8677 8.6595 14.2091 8.11883 14.0597 7.37483L13.8977 6.56416C13.8637 6.44083 13.7231 6.3335 13.5631 6.3335H10.7411C10.5811 6.3335 10.4404 6.44083 10.3997 6.59483L10.2444 7.37483C10.0957 8.11883 9.4364 8.6595 8.67773 8.6595C8.40173 8.6595 8.17773 8.4355 8.17773 8.1595C8.17773 7.8835 8.40173 7.6595 8.67773 7.6595C8.96173 7.6595 9.2084 7.45683 9.2644 7.17816L9.4264 6.3675C9.59107 5.74616 10.1291 5.3335 10.7411 5.3335H13.5631C14.1751 5.3335 14.7131 5.74616 14.8711 6.3375L15.0404 7.17816C15.0957 7.45683 15.3424 7.6595 15.6264 7.6595C15.9024 7.6595 16.1264 7.8835 16.1264 8.1595C16.1264 8.4355 15.9024 8.6595 15.6264 8.6595Z" fill="#D00000"/>
<circle cx="12" cy="12" r="12" fill="#D00000" fill-opacity="0.1"/>
</svg>
