<svg width="24" height="24" viewBox="0 0 24 24" fill="none" xmlns="http://www.w3.org/2000/svg">
<circle cx="12" cy="12" r="12" fill="#FF8906" fill-opacity="0.1"/>
<path d="M12 17.3333H18" stroke="#FF8906" stroke-linecap="round" stroke-linejoin="round"/>
<path d="M15 6.3334C15.2652 6.06819 15.6249 5.91919 16 5.91919C16.1857 5.91919 16.3696 5.95577 16.5412 6.02684C16.7128 6.09791 16.8687 6.20208 17 6.3334C17.1313 6.46472 17.2355 6.62063 17.3066 6.79221C17.3776 6.96379 17.4142 7.14769 17.4142 7.3334C17.4142 7.51912 17.3776 7.70302 17.3066 7.8746C17.2355 8.04618 17.1313 8.20208 17 8.3334L8.66667 16.6667L6 17.3334L6.66667 14.6667L15 6.3334Z" stroke="#FF8906" stroke-linecap="round" stroke-linejoin="round"/>
</svg>
